{"title":"The Voice - Australia S01 E12 - pKcMvA","uid":7307267,"size":761408486,"categoryP":"video","categoryS":"tv_shows","magnet":"?xt=urn:btih:8821bb7e561b4748b9c146d6ac7c82125c924bd5&amp;dn=The+Voice+-+Australia+S01+E12+-+pKcMvA&amp;tr=udp%3A%2F%2Ftracker.openbittorrent.com%3A80&amp;tr=udp%3A%2F%2Fopen.demonii.com%3A1337&amp;tr=udp%3A%2F%2Ftracker.coppersurfer.tk%3A6969&amp;tr=udp%3A%2F%2Fexodus.desync.com%3A6969","seeders":0,"leechers":1,"uploader":"PKCMVA","files":1,"time":1338235763,"description":"The Voice - Australia S01 E12 - pKcMvA\n\nLive Show Final, Part 3\n\nFormat                                   : AVI\nFormat/Info                              : Audio Video Interleave\nFile size                                : 727 MiB\nDuration                                 : 1h 30mn\nOverall bit rate                         : 1 127 Kbps\n\nVideo\nFormat                                   : MPEG-4 Visual\nFormat profile                           : Advanced Simple@L5\nFormat settings, BVOP                    : 2\nFormat settings, QPel                    : No\nFormat settings, GMC                     : No warppoints\nFormat settings, Matrix                  : Default (H.263)\nMuxing mode                              : Packed bitstream\nCodec ID                                 : XVID\nCodec ID/Hint                            : XviD\nDuration                                 : 1h 30mn\nBit rate                                 : 925 Kbps\nWidth                                    : 624 pixels\nHeight                                   : 352 pixels\nDisplay aspect ratio                     : 16:9\nFrame rate                               : 25.000 fps\nColor space                              : YUV\nChroma subsampling                       : 4:2:0\nBit depth                                : 8 bits\nScan type                                : Progressive\nBits/(Pixel*Frame)                       : 0.168\nStream size                              : 597 MiB (82%)\nWriting library                          : XviD 64\n\nAudio\nFormat                                   : MPEG Audio\nFormat version                           : Version 1\nFormat profile                           : Layer 3\nCodec ID                                 : 55\nCodec ID/Hint                            : MP3\nDuration                                 : 1h 30mn\nBit rate mode                            : Constant\nBit rate                                 : 192 Kbps\nChannel(s)                               : 2 channels\nSampling rate                            : 44.1 KHz\nStream size                              : 124 MiB (17%)\nAlignment                                : Split accross interleaves\nInterleave, duration                     : 40 ms (1.00 video frame)","torrent":{"xt":"urn:btih:8821bb7e561b4748b9c146d6ac7c82125c924bd5","amp;dn":"The+Voice+-+Australia+S01+E12+-+pKcMvA","amp;tr":["udp%3A%2F%2Ftracker.openbittorrent.com%3A80","udp%3A%2F%2Fopen.demonii.com%3A1337","udp%3A%2F%2Ftracker.coppersurfer.tk%3A6969","udp%3A%2F%2Fexodus.desync.com%3A6969"],"infoHash":"8821bb7e561b4748b9c146d6ac7c82125c924bd5","infoHashBuffer":{"type":"Buffer","data":[136,33,187,126,86,27,71,72,185,193,70,214,172,124,130,18,92,146,75,213]},"announce":[],"urlList":[]}}